<svg width="99" height="82" viewBox="0 0 99 82" fill="none" xmlns="http://www.w3.org/2000/svg">
<g clip-path="url(#clip0_267_2878)">
<path d="M69.5436 19.6149C69.8979 19.2093 70.2605 18.799 70.6207 18.391C70.8995 18.0637 71.2451 17.8004 71.6342 17.6189C72.0232 17.4374 72.4465 17.342 72.8755 17.3391C73.4412 17.3417 73.9944 17.5069 74.4695 17.8152C74.9447 18.1235 75.3219 18.562 75.5566 19.0789C75.6582 19.2366 75.8696 19.6469 75.8507 20.3371C75.8646 20.5604 75.8374 20.7843 75.7704 20.9977C75.4999 22.3022 74.4711 24.2649 71.4747 26.9878C72.1548 26.2019 72.7462 25.3428 73.2381 24.4262C73.1944 24.4701 73.1507 24.5139 73.1046 24.5566C70.7247 26.8656 67.3868 29.2208 63.4514 31.3673C60.6724 32.8783 57.794 34.1974 54.8364 35.3153C53.7072 35.7438 52.5852 36.1355 51.4702 36.4905C52.9974 35.6995 54.9899 34.5373 57.5872 32.8296C49.2013 37.7808 41.3351 38.6975 40.3689 38.7935L41.7863 38.6607C41.2697 38.72 40.7642 38.7675 40.2697 38.803C50.9186 36.7953 60.5907 29.5719 63.3971 27.168C63.9947 26.6557 64.5888 25.9394 65.236 25.0867C63.6923 26.4233 61.9041 27.7112 60.3262 28.1772C62.6376 27.0304 67.2817 22.103 69.5388 19.6149H69.5436ZM46.93 11.2601C46.87 11.2598 46.8111 11.2758 46.7595 11.3065C46.7079 11.3373 46.6656 11.3815 46.6371 11.4345L46.6123 11.4985L37.1386 35.4172L37.115 35.4765C37.1055 35.5069 37.1007 35.5385 37.1008 35.5702C37.1011 35.6586 37.1359 35.7434 37.1977 35.8064C37.2595 35.8693 37.3435 35.9055 37.4315 35.907H37.4705C41.302 35.7351 45.065 34.5527 48.5517 32.8924L48.593 32.8723C48.6532 32.8384 48.7015 32.7866 48.7312 32.724L48.7466 32.6825L51.0119 27.0186C51.0408 26.9659 51.0832 26.922 51.1347 26.8913C51.1862 26.8607 51.245 26.8444 51.3048 26.8443C51.3636 26.8441 51.4214 26.8596 51.4722 26.8892C51.523 26.9188 51.5651 26.9614 51.5942 27.0127V27.0186L51.6261 27.1016L52.9466 30.4815L53.0115 30.6499C53.5419 30.3961 55.2143 29.5885 56.5785 28.8402C56.5928 28.8305 56.6097 28.8256 56.6269 28.8259C56.6381 28.8259 56.6492 28.8281 56.6595 28.8324C56.6698 28.8367 56.6792 28.843 56.6871 28.8509C56.695 28.8589 56.7012 28.8683 56.7055 28.8786C56.7098 28.889 56.712 28.9001 56.712 28.9113C56.712 28.9322 56.7044 28.9525 56.6907 28.9682L56.5631 29.0595C55.2155 30.0083 53.256 31.2914 53.256 31.2914C51.6264 32.3182 49.9349 33.2426 48.1914 34.0594C44.5205 35.7635 40.5556 36.9222 36.5339 36.9269C34.363 36.9269 31.983 37.0099 30.0094 35.8299C28.3559 34.8397 28.1279 33.1023 28.2755 31.6792C28.4669 29.8316 29.6645 27.9887 31.0429 26.4351L31.0665 26.4067C31.1142 26.3477 31.1401 26.2739 31.1397 26.1979C31.1397 26.1096 31.1048 26.0248 31.0425 25.9623C30.9803 25.8998 30.8959 25.8647 30.8078 25.8647C30.7419 25.8644 30.6774 25.8838 30.6224 25.9204L30.5657 25.9691C28.4232 27.8558 26.3633 30.3024 26.1212 32.9007C25.9499 34.6974 26.6586 36.5664 28.7964 38.3725C33.9638 42.726 45.1135 41.316 55.6076 37.3432L55.662 37.4819C55.662 37.4819 57.0309 40.9721 60.0852 40.9721H67.0739C67.1621 40.9718 67.2466 40.9364 67.309 40.8738C67.3714 40.8111 67.4066 40.7262 67.4069 40.6376C67.4065 40.6101 67.4029 40.5826 67.3963 40.5558L67.3632 40.4716L64.4919 33.2719C68.4865 31.0934 72.0239 28.6291 74.6152 26.1161C75.1607 25.5903 75.6784 25.0361 76.166 24.4558C76.5272 24.0284 76.8583 23.5762 77.157 23.1027C77.2715 22.927 77.3753 22.7444 77.4676 22.556C77.9838 21.548 78.0854 20.7261 77.9909 19.947C77.979 19.8367 77.9613 19.7276 77.9424 19.6197C77.7779 18.3877 77.1735 17.2576 76.2415 16.4394C75.3095 15.6212 74.1134 15.1706 72.8755 15.1713C72.1415 15.1749 71.4167 15.3354 70.7494 15.6421C70.082 15.9488 69.4873 16.3947 69.005 16.9502C65.9801 20.3763 63.0663 23.8012 61.3112 25.3049L61.0195 24.5554L55.8167 11.495L55.7931 11.4546C55.7655 11.3964 55.7219 11.3474 55.6675 11.3131C55.6131 11.2789 55.5502 11.2609 55.486 11.2613L46.93 11.2601Z" fill="white"/>
<path d="M6.15697 47.3563C7.2681 47.3563 8.19356 47.4832 8.93336 47.7369C9.60641 47.9488 10.2176 48.3229 10.7135 48.8266C11.1672 49.3151 11.4924 49.9096 11.6595 50.5563C11.8525 51.2923 11.9461 52.051 11.938 52.8121V60.6591C11.3982 60.7792 10.6493 60.919 9.69134 61.0786C8.53831 61.2528 7.37315 61.3333 6.20721 61.3193C5.42279 61.3272 4.63979 61.2508 3.87154 61.0915C3.22754 60.9624 2.61468 60.7088 2.06702 60.3449C1.56683 60.0043 1.16598 59.5361 0.905645 58.9885C0.618293 58.3433 0.480371 57.641 0.50225 56.9345C0.48083 56.2459 0.641833 55.564 0.968811 54.9583C1.26938 54.427 1.69905 53.9807 2.21776 53.6611C2.77144 53.3276 3.37787 53.0916 4.01079 52.9634C4.70008 52.8188 5.40253 52.7468 6.10672 52.7486C6.53821 52.7465 6.96951 52.7676 7.39873 52.8121C7.7099 52.8415 8.01814 52.8964 8.32037 52.9764V52.6218C8.32037 51.9789 8.12896 51.4634 7.74614 51.0752C7.36332 50.6869 6.69004 50.4948 5.72629 50.4986C5.09245 50.5 4.45958 50.5482 3.83277 50.6427C3.28208 50.7186 2.74048 50.8505 2.21632 51.0362L1.73684 47.9949C1.95504 47.9266 2.22876 47.8546 2.55798 47.7787C2.8853 47.7023 3.24275 47.6345 3.63036 47.5769C4.01796 47.5192 4.42566 47.4659 4.8549 47.4241C5.28414 47.3823 5.71625 47.3606 6.15553 47.3606L6.15697 47.3563ZM6.45843 58.4119C6.82881 58.4119 7.17622 58.4047 7.51789 58.3874C7.7885 58.3771 8.05833 58.3516 8.32611 58.311V55.447C8.10067 55.4014 7.87308 55.3672 7.64422 55.3446C7.36778 55.3128 7.08983 55.2959 6.81159 55.2942C6.47798 55.2931 6.14468 55.3143 5.81386 55.3576C5.52937 55.3924 5.25247 55.4737 4.99415 55.5983C4.77014 55.7071 4.57855 55.8732 4.43858 56.0797C4.29689 56.3074 4.22638 56.5725 4.23617 56.8408C4.23617 57.4318 4.43428 57.8416 4.8305 58.0703C5.22671 58.299 5.76936 58.4129 6.45843 58.4119Z" fill="white"/>
<path d="M19.1573 58.3327C19.8478 58.3327 20.3345 58.265 20.6216 58.1295C20.9087 57.994 21.0523 57.7331 21.0523 57.3439C21.0523 57.0393 20.8671 56.7731 20.4967 56.5454C19.9564 56.2386 19.3906 55.9796 18.8056 55.7714C18.2599 55.5711 17.7247 55.3431 17.2021 55.0881C16.7519 54.8716 16.3387 54.585 15.9775 54.2391C15.6385 53.9045 15.3721 53.5031 15.1951 53.0601C14.998 52.5339 14.904 51.9745 14.9181 51.4125C14.9181 50.1633 15.3808 49.1745 16.3063 48.4461C17.2317 47.7177 18.5022 47.3545 20.1177 47.3564C20.8971 47.3537 21.6749 47.4261 22.4405 47.5726C23.0417 47.6781 23.6329 47.8348 24.2076 48.0411L23.5516 50.9815C23.0834 50.8207 22.6071 50.6851 22.1246 50.5751C21.5587 50.4522 20.9809 50.3928 20.4019 50.3978C19.2229 50.3978 18.6338 50.7274 18.6348 51.3866C18.6319 51.5259 18.6578 51.6643 18.7108 51.7931C18.779 51.932 18.8832 52.05 19.0123 52.1347C19.2083 52.2705 19.4153 52.3896 19.631 52.4907C19.8923 52.6195 20.2273 52.7602 20.6359 52.913C21.3381 53.1657 22.0213 53.4687 22.6802 53.8197C23.155 54.0691 23.5857 54.3954 23.955 54.7854C24.2577 55.1153 24.4824 55.5094 24.6125 55.9386C24.7456 56.4155 24.8094 56.9092 24.802 57.4045C24.802 58.72 24.3096 59.7151 23.3248 60.3896C22.34 61.0642 20.947 61.4005 19.1458 61.3986C18.1521 61.4197 17.1597 61.3166 16.1914 61.0916C15.6372 60.9629 15.0932 60.7938 14.5635 60.5857L15.1937 57.5183C15.8324 57.7719 16.4913 57.971 17.1633 58.1136C17.8186 58.2558 18.4869 58.3283 19.1573 58.3299" fill="white"/>
<path d="M27.4624 44.3917L31.2236 43.7834V47.7112H35.7428V50.8578H31.2236V55.5467C31.2236 56.3405 31.3624 56.9742 31.64 57.448C31.9185 57.9207 32.4769 58.1571 33.3196 58.1571C33.7384 58.156 34.1563 58.1179 34.5685 58.0433C34.969 57.975 35.3622 57.8688 35.7428 57.7262L36.2725 60.6666C35.7803 60.8651 35.2741 61.0265 34.758 61.1495C34.0866 61.2958 33.4007 61.3635 32.7138 61.3513C31.6859 61.3513 30.836 61.212 30.1642 60.9333C29.5359 60.6879 28.9798 60.2867 28.5477 59.7672C28.1293 59.2376 27.8397 58.6171 27.7022 57.9553C27.535 57.1797 27.4546 56.3878 27.4624 55.5943V44.3917Z" fill="white"/>
<path d="M37.6619 54.4798C37.64 53.4188 37.8243 52.3637 38.2046 51.3735C38.5276 50.5461 39.0129 49.7923 39.6315 49.1566C40.2087 48.5724 40.9004 48.115 41.6628 47.8133C42.414 47.5118 43.2154 47.3568 44.0244 47.3563C45.9078 47.3563 47.397 47.9353 48.4919 49.0932C49.5867 50.2512 50.1337 51.9535 50.1327 54.2001C50.1327 54.4207 50.1241 54.6614 50.1083 54.9208C50.0925 55.1803 50.0739 55.4153 50.0566 55.6185H41.5308C41.5638 55.9885 41.6783 56.3464 41.866 56.6665C42.0537 56.9866 42.3099 57.2608 42.6161 57.4693C43.2554 57.9247 44.1134 58.1525 45.19 58.1525C45.872 58.153 46.5525 58.0898 47.2228 57.9637C47.7815 57.8685 48.328 57.7114 48.8522 57.4952L49.3575 60.5625C49.097 60.6863 48.8266 60.788 48.5493 60.8667C48.1801 60.9757 47.8054 61.0647 47.4267 61.1333C47.0132 61.2083 46.5725 61.2775 46.1016 61.3236C45.6319 61.3737 45.1599 61.3987 44.6876 61.3985C43.4913 61.3985 42.4519 61.2213 41.5695 60.8667C40.7398 60.5485 39.9899 60.051 39.3731 59.4094C38.7861 58.7837 38.3448 58.0348 38.0811 57.217C37.7975 56.3323 37.657 55.4077 37.6648 54.4783L37.6619 54.4798ZM46.5007 53.0369C46.4839 52.7191 46.429 52.4046 46.3371 52.1C46.248 51.8037 46.1017 51.5279 45.9064 51.2885C45.7055 51.0454 45.4567 50.8467 45.1757 50.7047C44.8326 50.5429 44.4563 50.4648 44.0775 50.477C43.7042 50.4671 43.3334 50.541 42.9922 50.6932C42.7011 50.8283 42.4425 51.025 42.2342 51.2698C42.0287 51.5129 41.8705 51.7926 41.7676 52.0942C41.6603 52.3996 41.581 52.7142 41.5308 53.034L46.5007 53.0369Z" fill="white"/>
<path d="M61.0385 51.0579C60.7011 50.9728 60.3063 50.8849 59.8512 50.7912C59.3692 50.6942 58.8786 50.646 58.387 50.6471C58.1046 50.6507 57.8226 50.6719 57.5428 50.7105C57.2913 50.7399 57.0422 50.7881 56.7978 50.8546V61.044H53.0352V48.4215C53.8175 48.1537 54.6141 47.9295 55.4211 47.7498C56.4285 47.5286 57.4577 47.4222 58.4889 47.4327C58.6913 47.4327 58.9339 47.4457 59.221 47.4702C59.5081 47.4947 59.7953 47.5293 60.0824 47.5725C60.3695 47.6158 60.6566 47.6648 60.9437 47.7239C61.1941 47.7724 61.4392 47.8448 61.6759 47.9401L61.0385 51.0579Z" fill="white"/>
<path d="M75.8585 54.3531C75.8702 55.333 75.7163 56.3077 75.4035 57.2359C75.1258 58.063 74.6789 58.8226 74.0914 59.4658C73.5149 60.0849 72.8136 60.5733 72.0342 60.8986C71.1806 61.246 70.2663 61.418 69.3454 61.4045C68.4329 61.4169 67.5273 61.2448 66.6824 60.8986C65.9021 60.5741 65.2002 60.0855 64.6238 59.4658C64.0341 58.8195 63.5792 58.0614 63.2858 57.2359C62.957 56.3111 62.7947 55.335 62.8063 54.3531C62.7938 53.3757 62.9607 52.4043 63.2987 51.4876C63.6012 50.6684 64.065 49.9188 64.6625 49.2837C65.2473 48.6718 65.9522 48.1883 66.7326 47.8639C67.5605 47.5196 68.4493 47.347 69.3454 47.3565C70.2495 47.3455 71.1465 47.5181 71.9825 47.8639C72.7604 48.1867 73.4619 48.6705 74.0411 49.2837C74.6301 49.9206 75.0851 50.6701 75.3791 51.4876C75.7079 52.4064 75.8703 53.3769 75.8585 54.3531ZM72.0213 54.3531C72.0213 53.1875 71.7896 52.2708 71.3264 51.6029C70.8632 50.9351 70.2029 50.6011 69.3454 50.6011C68.484 50.6011 67.8193 50.9351 67.3513 51.6029C66.8833 52.2708 66.6474 53.1875 66.6436 54.3531C66.6436 55.5187 66.8795 56.4437 67.3513 57.1278C67.5678 57.4566 67.865 57.7238 68.2143 57.9036C68.5636 58.0833 68.9531 58.1696 69.3454 58.1541C70.2067 58.1541 70.8671 57.812 71.3264 57.1278C71.7858 56.4437 72.0174 55.5187 72.0213 54.3531Z" fill="white"/>
<path d="M82.8751 43.8583C82.8751 44.5511 82.6521 45.0964 82.2061 45.4943C81.7736 45.886 81.2094 46.0987 80.627 46.0896C80.0446 46.0987 79.4804 45.886 79.0479 45.4943C78.6009 45.0964 78.378 44.5511 78.3789 43.8583C78.3799 43.1654 78.6029 42.6206 79.0479 42.2237C79.4804 41.832 80.0446 41.6193 80.627 41.6284C81.2094 41.6193 81.7736 41.832 82.2061 42.2237C82.6531 42.6215 82.8761 43.1664 82.8751 43.8583ZM82.522 61.0442H78.7608V47.7112H82.522V61.0442Z" fill="white"/>
<path d="M97.7693 60.6132C97.4334 60.7141 97.0515 60.8121 96.6079 60.9014C96.1643 60.9908 95.7121 61.0758 95.2326 61.1436C94.7532 61.2113 94.2636 61.2647 93.7684 61.3079C93.2731 61.3512 92.7965 61.3713 92.3414 61.3713C91.3444 61.3872 90.3527 61.2241 89.4128 60.8899C88.5967 60.5953 87.8555 60.1233 87.2423 59.5076C86.6407 58.8875 86.1798 58.144 85.8914 57.3282C85.5677 56.4024 85.4097 55.4264 85.4248 54.4454C85.4123 53.4547 85.5483 52.4679 85.8282 51.5178C86.0653 50.7085 86.46 49.9545 86.9896 49.2995C87.4905 48.6948 88.1265 48.2172 88.8458 47.9057C89.6404 47.5722 90.4955 47.4082 91.3566 47.4242C91.828 47.4186 92.2983 47.4694 92.7577 47.5756C93.1862 47.6831 93.6046 47.8278 94.0081 48.008V41.9757L97.7693 41.3674V60.6132ZM89.2621 54.2709C89.2621 55.4366 89.5229 56.3744 90.0445 57.0846C90.5661 57.7947 91.3403 58.1493 92.3672 58.1483C92.7032 58.1483 93.0147 58.1368 93.3018 58.1109C93.5889 58.0849 93.8229 58.0561 94.0081 58.0215V51.1532C93.7224 50.9792 93.4114 50.8508 93.0865 50.7726C92.7118 50.6723 92.3258 50.6214 91.938 50.6213C90.1541 50.6213 89.2621 51.8378 89.2621 54.2709Z" fill="white"/>
<path d="M13.1443 65.1682V65.7808H11.5623V70.2189H10.8574V65.7808H9.27539V65.1682H13.1443Z" fill="white"/>
<path d="M16.3525 70.2189V65.1682H19.4232V65.7736H17.0574V67.2741H19.162V67.8651H17.0574V69.615H19.6055V70.2189H16.3525Z" fill="white"/>
<path d="M24.9259 70.3281C24.5957 70.332 24.2677 70.2723 23.9598 70.1522C23.6761 70.0403 23.421 69.866 23.2133 69.642C22.9957 69.4036 22.8308 69.1216 22.7295 68.8146C22.6108 68.4515 22.5536 68.071 22.5601 67.6889C22.5529 67.3048 22.6181 66.9228 22.7525 66.5631C22.8674 66.2548 23.0437 65.9733 23.2707 65.7358C23.4865 65.514 23.7462 65.3402 24.033 65.2255C24.3286 65.108 24.6439 65.0487 24.9618 65.0511C25.1503 65.0495 25.3385 65.064 25.5246 65.0943C25.6702 65.119 25.814 65.1532 25.9552 65.1967C26.0586 65.2277 26.1594 65.2667 26.2567 65.3134C26.3323 65.3519 26.3854 65.3807 26.4161 65.3999L26.2122 65.9837C26.1525 65.9464 26.0895 65.9146 26.0242 65.8885C25.9409 65.8554 25.8476 65.8208 25.7442 65.7862C25.6323 65.7506 25.5182 65.7226 25.4025 65.7026C25.2793 65.6808 25.1544 65.6697 25.0293 65.6694C24.7828 65.6683 24.5386 65.7174 24.3115 65.8136C24.1019 65.9041 23.9158 66.0417 23.7674 66.2157C23.6101 66.402 23.4928 66.6189 23.4229 66.8528C23.3393 67.1254 23.2986 67.4094 23.3023 67.6946C23.2995 67.9731 23.3353 68.2506 23.4085 68.5191C23.4708 68.7504 23.5781 68.9669 23.7244 69.1562C23.8645 69.3334 24.0446 69.4747 24.2498 69.5685C24.4821 69.6691 24.7333 69.7183 24.9862 69.7126C25.2587 69.7192 25.5307 69.6847 25.793 69.6103C25.9572 69.5614 26.1175 69.5002 26.2725 69.4272L26.4534 70.011C26.3962 70.0471 26.3356 70.0776 26.2725 70.1018C26.166 70.145 26.0567 70.1807 25.9452 70.2084C25.7942 70.2455 25.6413 70.2744 25.4872 70.2949C25.2998 70.3206 25.1108 70.3331 24.9216 70.3324" fill="white"/>
<path d="M32.8964 65.1682H33.6013V70.2189H32.8964V67.8867H30.4358V70.2189H29.7324V65.1682H30.4358V67.2756H32.8964V65.1682Z" fill="white"/>
<path d="M40.7656 70.2186C40.6594 70.0389 40.5374 69.8372 40.3996 69.6133C40.256 69.3898 40.1124 69.1578 39.9531 68.9171C39.7938 68.6763 39.6272 68.4327 39.455 68.1848C39.2827 67.9369 39.1133 67.6976 38.9439 67.4641C38.7745 67.2306 38.6094 67.0158 38.4501 66.8111C38.2907 66.6065 38.1428 66.4277 38.0065 66.2721V70.2158H37.3174V65.1636H37.8758C38.1041 65.4072 38.3467 65.6897 38.6051 66.014C38.8635 66.3384 39.1219 66.6699 39.376 67.0115C39.6301 67.3531 39.8698 67.6904 40.0938 68.0205C40.3177 68.3506 40.5087 68.6446 40.668 68.9026V65.155H41.3585V70.2071L40.7656 70.2186Z" fill="white"/>
<path d="M44.8677 67.6892C44.8606 67.299 44.9259 66.9109 45.0601 66.5447C45.1752 66.2355 45.3531 65.9537 45.5826 65.7173C45.8011 65.4984 46.0634 65.3284 46.3521 65.2186C46.6502 65.1057 46.9666 65.0491 47.2852 65.0514C47.5992 65.049 47.9108 65.1057 48.204 65.2186C48.4888 65.3293 48.7471 65.4993 48.962 65.7173C49.1896 65.9547 49.3664 66.2362 49.4816 66.5447C49.6159 66.9109 49.6811 67.299 49.674 67.6892C49.6811 68.0793 49.6159 68.4674 49.4816 68.8337C49.3668 69.1423 49.1899 69.424 48.962 69.661C48.7479 69.88 48.4894 70.0501 48.204 70.1598C47.9109 70.2731 47.5993 70.3303 47.2852 70.3284C46.9665 70.3303 46.6502 70.2731 46.3521 70.1598C46.0629 70.0508 45.8005 69.8808 45.5826 69.661C45.3528 69.4249 45.1748 69.143 45.0601 68.8337C44.9259 68.4674 44.8606 68.0793 44.8677 67.6892ZM45.6085 67.6892C45.605 67.9717 45.6442 68.2531 45.7247 68.5238C45.7924 68.7561 45.9046 68.973 46.0549 69.1623C46.196 69.3353 46.3748 69.4734 46.5775 69.5659C46.7953 69.6642 47.032 69.7134 47.2709 69.71C47.5083 69.7136 47.7436 69.6644 47.9599 69.5659C48.1613 69.4725 48.339 69.3345 48.4796 69.1623C48.6294 68.9727 48.7415 68.7559 48.8098 68.5238C48.8904 68.2531 48.9296 67.9717 48.9261 67.6892C48.9293 67.4067 48.8901 67.1253 48.8098 66.8546C48.7417 66.6229 48.6295 66.4065 48.4796 66.2175C48.3395 66.0444 48.1617 65.9058 47.9599 65.8125C47.7436 65.714 47.5083 65.6648 47.2709 65.6683C47.032 65.6649 46.7953 65.7141 46.5775 65.8125C46.3743 65.9049 46.1954 66.0436 46.0549 66.2175C45.9046 66.4062 45.7924 66.6227 45.7247 66.8546C45.6444 67.1253 45.6052 67.4067 45.6085 67.6892Z" fill="white"/>
<path d="M56.2151 69.6078V70.2189H53.1875V65.1682H53.8924V69.6078H56.2151Z" fill="white"/>
<path d="M58.8911 67.6892C58.8841 67.299 58.9493 66.9109 59.0835 66.5447C59.1986 66.2355 59.3766 65.9537 59.6061 65.7173C59.8243 65.4981 60.0866 65.328 60.3755 65.2186C60.6737 65.1057 60.99 65.0491 61.3086 65.0514C61.6226 65.049 61.9342 65.1057 62.2274 65.2186C62.5124 65.329 62.7708 65.499 62.9854 65.7173C63.213 65.9547 63.3898 66.2362 63.5051 66.5447C63.6393 66.9109 63.7045 67.299 63.6974 67.6892C63.7045 68.0793 63.6393 68.4674 63.5051 68.8337C63.3902 69.1423 63.2133 69.424 62.9854 69.661C62.7716 69.8803 62.513 70.0505 62.2274 70.1598C61.9343 70.2731 61.6227 70.3303 61.3086 70.3284C60.9899 70.3303 60.6736 70.2731 60.3755 70.1598C60.0861 70.0514 59.8236 69.8812 59.6061 69.661C59.3763 69.4249 59.1983 69.143 59.0835 68.8337C58.9493 68.4674 58.8841 68.0793 58.8911 67.6892ZM59.6319 67.6892C59.6284 67.9717 59.6676 68.2531 59.7482 68.5238C59.8159 68.7561 59.928 68.973 60.0784 69.1623C60.2194 69.3353 60.3982 69.4734 60.6009 69.5659C60.8188 69.6642 61.0555 69.7134 61.2943 69.71C61.5318 69.7136 61.7671 69.6644 61.9834 69.5659C62.1859 69.4737 62.3646 69.3361 62.5059 69.1637C62.6557 68.9741 62.7678 68.7573 62.8361 68.5252C62.9167 68.2545 62.9559 67.9731 62.9524 67.6906C62.9556 67.4081 62.9164 67.1268 62.8361 66.856C62.768 66.6243 62.6559 66.408 62.5059 66.2189C62.3662 66.0454 62.1884 65.9067 61.9862 65.8139C61.7699 65.7154 61.5346 65.6662 61.2972 65.6698C61.0583 65.6664 60.8216 65.7156 60.6038 65.8139C60.4006 65.9063 60.2217 66.045 60.0812 66.2189C59.9309 66.4077 59.8187 66.6241 59.7511 66.856C59.6707 67.1268 59.6315 67.4081 59.6348 67.6906" fill="white"/>
<path d="M70.2828 67.7339H70.9862V70.095C70.9042 70.1209 70.8208 70.1426 70.7365 70.1598C70.6273 70.1843 70.501 70.2088 70.3589 70.2333C70.2168 70.2578 70.0603 70.278 69.8909 70.2953C69.7197 70.3127 69.5476 70.3214 69.3755 70.3213C69.0452 70.3252 68.7173 70.2655 68.4094 70.1454C68.1255 70.033 67.8701 69.8587 67.6614 69.6351C67.4449 69.3978 67.2806 69.1174 67.1791 68.8121C67.0598 68.4501 67.002 68.0705 67.0083 67.6892C67.0024 67.3071 67.0677 66.9273 67.2006 66.5693C67.3167 66.2612 67.4935 65.9798 67.7203 65.7419C67.9363 65.5191 68.1972 65.3452 68.4855 65.2316C68.785 65.114 69.1041 65.0548 69.4258 65.0572C69.6285 65.0554 69.8311 65.0698 70.0316 65.1005C70.1849 65.1241 70.3365 65.1583 70.4852 65.2028C70.5909 65.2337 70.6941 65.2728 70.7939 65.3196C70.8499 65.3454 70.9046 65.3743 70.9575 65.406L70.7321 65.9927C70.5595 65.8866 70.3709 65.8092 70.1737 65.7635C69.9418 65.7019 69.703 65.6709 69.4631 65.6713C69.2217 65.6706 68.9828 65.7197 68.7611 65.8154C68.5539 65.9065 68.3702 66.044 68.2242 66.2176C68.069 66.4053 67.9519 66.6217 67.8797 66.8547C67.7943 67.1269 67.7526 67.4111 67.7562 67.6964C67.7537 67.9748 67.7889 68.2522 67.861 68.5209C67.9235 68.7529 68.0325 68.9697 68.1811 69.158C68.3233 69.3351 68.5047 69.4762 68.7109 69.5703C68.9455 69.6715 69.1992 69.7206 69.4545 69.7144C69.6283 69.7162 69.802 69.7051 69.9742 69.6813C70.0784 69.6678 70.1815 69.6471 70.2828 69.6193V67.7339Z" fill="white"/>
<path d="M75.262 65.1682H74.5586V70.2189H75.262V65.1682Z" fill="white"/>
<path d="M78.9795 70.2189V65.1682H82.0502V65.7736H79.6844V67.2741H81.7889V67.8651H79.6844V69.615H82.2325V70.2189H78.9795Z" fill="white"/>
<path d="M86.7672 69.7157C87.5022 69.7157 87.8702 69.4629 87.8712 68.9575C87.8754 68.8182 87.8411 68.6805 87.7721 68.5597C87.7045 68.4465 87.6146 68.3484 87.508 68.2714C87.3889 68.188 87.2608 68.1183 87.1261 68.0638C86.9825 68.0062 86.8318 67.9471 86.6725 67.8894C86.4943 67.828 86.3198 67.7562 86.1499 67.6746C85.9934 67.5996 85.8484 67.5026 85.7192 67.3864C85.5982 67.2775 85.5005 67.1451 85.4321 66.9972C85.3578 66.825 85.322 66.6385 85.3273 66.4509C85.3173 66.255 85.3527 66.0595 85.4307 65.8797C85.5086 65.6998 85.6271 65.5406 85.7767 65.4145C86.0762 65.1675 86.4901 65.0441 87.0184 65.0441C87.2985 65.0407 87.5779 65.0736 87.8496 65.1421C88.0425 65.1842 88.2276 65.2567 88.398 65.3568L88.1726 65.9334C88.0293 65.8539 87.877 65.7919 87.719 65.7489C87.4913 65.6836 87.2552 65.6525 87.0184 65.6567C86.8912 65.6555 86.7643 65.6705 86.6409 65.7013C86.5324 65.7264 86.4294 65.7709 86.3365 65.8325C86.2508 65.8887 86.1799 65.9648 86.1298 66.0545C86.0763 66.1514 86.0496 66.2609 86.0523 66.3716C86.0483 66.4906 86.0761 66.6086 86.1327 66.7132C86.1892 66.8104 86.2661 66.894 86.3581 66.9583C86.4635 67.0342 86.5766 67.099 86.6954 67.1514C86.8232 67.2091 86.9653 67.2682 87.1261 67.3258C87.3429 67.4137 87.5439 67.5017 87.7247 67.5882C87.8962 67.6699 88.0552 67.7757 88.197 67.9024C88.3293 68.0226 88.4341 68.1701 88.5042 68.3348C88.582 68.5278 88.6192 68.7349 88.6134 68.9431C88.6234 69.14 88.5846 69.3363 88.5004 69.5144C88.4162 69.6925 88.2893 69.8469 88.131 69.9636C87.8094 70.2009 87.3558 70.3201 86.7701 70.3211C86.5865 70.3217 86.4032 70.3082 86.2217 70.2807C86.0713 70.2568 85.9223 70.2251 85.7752 70.1856C85.6601 70.1549 85.5474 70.1158 85.4379 70.0688C85.3431 70.0285 85.2699 69.9924 85.2168 69.9636L85.4264 69.3798C85.5894 69.4649 85.7595 69.5358 85.9346 69.5917C86.205 69.6757 86.4871 69.7151 86.7701 69.7085" fill="white"/>
</g>
<defs>
<clipPath id="clip0_267_2878">
<rect width="98" height="59.4798" fill="white" transform="translate(0.5 11.2601)"/>
</clipPath>
</defs>
</svg>
