<svg width="100" height="82" viewBox="0 0 100 82" fill="none" xmlns="http://www.w3.org/2000/svg">
<g clip-path="url(#clip0_267_2640)">
<path d="M74.4095 41.8211L77.7961 9.61519L81.2025 40.5048L74.4095 41.8211ZM55.7963 10.5611V55.3146L59.4409 54.5936V9.86654L66.3729 8.53042V5.24302L48.7982 8.6164V11.9038L55.8029 10.5611H55.7963ZM42.2367 57.9075V9.85992L38.4466 10.5941V58.6615L42.2367 57.9141V57.9075ZM26.6 29.5248V49.7253C26.6 60.8972 14.5948 60.7583 14.5948 53.1715V32.832C14.5948 21.9843 26.6 21.5146 26.6 29.5314V29.5248ZM30.2446 49.7253V29.5248C30.2446 17.0631 10.8113 17.5393 10.8113 32.832V53.1715C10.8113 65.1437 30.2446 65.5935 30.2446 49.7253ZM30.2446 12.1684L20.5147 14.0403V17.3277L30.2446 15.4624V12.175V12.1684ZM84.4039 62.0944C84.5164 61.5653 84.6354 61.0361 84.7413 60.5069C84.8471 59.9778 84.9728 59.4486 85.0918 58.9195C85.1977 59.4023 85.3101 59.8852 85.4226 60.3747C85.535 60.8641 85.6541 61.347 85.7731 61.8298C85.3167 61.9158 84.8603 62.0018 84.4105 62.0878L84.4039 62.0944ZM85.8393 56.5052C85.3564 56.5978 84.8669 56.6904 84.3775 56.783C84.0005 58.2183 83.6234 59.6603 83.2398 61.1022C82.8628 62.5442 82.4791 63.9795 82.1021 65.4215C82.6048 65.3223 83.1075 65.2297 83.6168 65.1305C83.7557 64.6211 83.8946 64.1052 84.0401 63.5959C84.7346 63.4636 85.4358 63.3313 86.1435 63.1924C86.2824 63.6554 86.4213 64.1052 86.5602 64.5682C87.0629 64.4756 87.5656 64.3764 88.075 64.2772C87.6979 62.9874 87.3143 61.6909 86.9439 60.4011C86.5735 59.1047 86.2031 57.8082 85.8327 56.5118L85.8393 56.5052ZM80.9115 57.4511C80.7924 57.8876 80.6667 58.3242 80.5477 58.7607C80.4286 59.1973 80.3096 59.6338 80.1971 60.0704C80.0648 60.7385 79.9325 61.4065 79.8135 62.0746C79.6944 62.7426 79.5687 63.4107 79.4431 64.0721C79.3108 63.4636 79.1785 62.8485 79.0528 62.2333C78.9271 61.6116 78.8015 60.9964 78.6692 60.3813C78.5501 59.991 78.4244 59.5941 78.3054 59.1973C78.1863 58.807 78.0739 58.4035 77.9614 58.0133C77.4587 58.1125 76.9494 58.2051 76.4533 58.2977C76.8171 59.6008 77.1942 60.8972 77.558 62.1936C77.9217 63.4967 78.3054 64.7865 78.6692 66.0829C79.1785 65.9837 79.6944 65.8845 80.2104 65.7853C80.5742 64.35 80.9446 62.908 81.3017 61.4727C81.6589 60.0307 82.0426 58.5954 82.4196 57.1534C81.9169 57.246 81.4142 57.3452 80.9115 57.4444V57.4511ZM75.6067 58.4697C75.1172 58.5623 74.6211 58.6615 74.125 58.7541V66.9627C74.6211 66.8634 75.1172 66.7709 75.6067 66.6782V58.4697ZM73.2982 58.9327C71.6777 59.2436 70.0505 59.5545 68.43 59.8653V61.1816C68.9988 61.0758 69.5677 60.9633 70.1365 60.8575V67.7233C70.626 67.6307 71.1088 67.5315 71.5983 67.4389V60.5731C72.1605 60.4606 72.7228 60.3548 73.2982 60.2424V58.9327ZM65.2749 65.7654C65.3873 65.2363 65.4998 64.7137 65.6122 64.178C65.718 63.6488 65.8437 63.1197 65.9628 62.5905C66.0686 63.08 66.1943 63.5628 66.3001 64.0457C66.4059 64.5352 66.5316 65.018 66.6507 65.5009C66.1943 65.5869 65.7379 65.6728 65.2815 65.7654H65.2749ZM66.7036 60.1762C66.2141 60.2688 65.7313 60.368 65.2418 60.454C64.8648 61.8894 64.4878 63.3313 64.1041 64.7733C63.7271 66.2152 63.3501 67.6572 62.9664 69.0925C63.4691 68.9933 63.9718 68.9007 64.4811 68.8015C64.62 68.2922 64.7589 67.7829 64.9045 67.2669C65.599 67.1346 66.3067 67.0024 67.0079 66.8634C67.1468 67.3198 67.2857 67.7829 67.4246 68.2393C67.9273 68.14 68.43 68.0474 68.9393 67.9482C68.5623 66.6518 68.1852 65.3554 67.8082 64.0589C67.4378 62.7625 67.0674 61.466 66.697 60.1696L66.7036 60.1762ZM58.7464 65.6596V63.0469C58.9581 63.0072 59.1631 62.9675 59.3814 62.9278C60.5191 62.7096 60.7241 63.0734 60.7241 63.8539V64.1317C60.7241 64.9056 60.4265 65.3421 59.3615 65.5472C59.1499 65.5802 58.9514 65.6199 58.753 65.6596H58.7464ZM62.6489 69.1587C62.3447 68.6957 62.0404 68.2327 61.7427 67.7696C61.4517 67.3066 61.1408 66.8436 60.8498 66.3806C61.3459 66.1226 61.7031 65.8117 61.9346 65.4149C62.1528 65.0114 62.2719 64.5219 62.2719 63.9134V63.4835C62.2719 62.617 62.0338 62.0481 61.5575 61.7439C61.0813 61.433 60.3537 61.3933 59.3682 61.5851C58.6736 61.7174 57.9857 61.8497 57.2978 61.982V70.1971C57.7873 70.0979 58.2834 70.0053 58.7728 69.9127V67.0222C58.9514 66.9891 59.13 66.9561 59.3086 66.9164C59.5798 67.3529 59.8444 67.7829 60.1222 68.2128C60.3934 68.6361 60.6646 69.0727 60.9424 69.496C61.5179 69.3836 62.0867 69.2777 62.6622 69.1653L62.6489 69.1587ZM51.272 63.1329V71.3547C52.8926 71.0438 54.5197 70.7263 56.1469 70.4154V69.0727C55.0092 69.291 53.8781 69.5092 52.7404 69.7275V67.558C53.6599 67.386 54.5859 67.2008 55.5119 67.0288V65.7059C54.5859 65.8779 53.6599 66.0631 52.7404 66.2351V64.1251C53.8186 63.92 54.9034 63.7084 55.9948 63.4967V62.2201C54.4139 62.5244 52.8397 62.8286 51.272 63.1263V63.1329ZM46.589 68.3054V65.3752C46.7808 65.3355 46.9859 65.3024 47.1843 65.2627C48.3286 65.0445 48.5866 65.4017 48.5866 66.1755V66.7841C48.5866 67.558 48.2426 67.9879 47.1711 68.193C46.9726 68.2327 46.7808 68.2657 46.589 68.2988V68.3054ZM45.1007 64.3169V72.5254C45.5902 72.4328 46.0995 72.3336 46.6022 72.241V69.7275C46.7874 69.6878 46.9792 69.6481 47.1711 69.6151C48.1434 69.4299 48.871 69.0925 49.3472 68.5898C49.8301 68.0871 50.0748 67.4257 50.0748 66.5724V65.8118C50.0748 64.9453 49.8433 64.3764 49.3671 64.0721C48.8842 63.7679 48.1632 63.7282 47.1711 63.92C46.4765 64.0523 45.7886 64.178 45.1007 64.3169ZM40.8873 72.1153C39.8224 72.3204 39.6107 71.9103 39.6107 71.1298V67.8027C39.6107 67.0553 39.8224 66.5393 40.8873 66.3343C42.025 66.116 42.2168 66.5526 42.2168 67.3066V70.6337C42.2168 71.4142 41.9522 71.9103 40.8873 72.122V72.1153ZM40.8873 73.4118C41.8596 73.2266 42.5608 72.9025 43.0238 72.413C43.4736 71.9235 43.6918 71.2687 43.6918 70.422V66.9428C43.6918 66.0697 43.4736 65.5009 43.0238 65.19C42.574 64.8791 41.8729 64.8328 40.8807 65.0246C39.8819 65.2164 39.194 65.5273 38.7641 66.0102C38.3275 66.4864 38.1357 67.1346 38.1357 68.0078V71.487C38.1357 72.3336 38.3275 72.9091 38.7707 73.2266C39.2138 73.5441 39.8951 73.597 40.8807 73.4052L40.8873 73.4118ZM34.0479 73.425C32.983 73.6367 32.7846 73.22 32.7846 72.4395V69.1124C32.7846 68.3716 32.983 67.849 34.0479 67.6373C35.1922 67.4191 35.3841 67.8622 35.3841 68.6163V71.9368C35.3841 72.7173 35.1129 73.2133 34.0479 73.4184V73.425ZM34.0479 74.7281C35.0203 74.5429 35.7214 74.2187 36.1844 73.7293C36.6408 73.2398 36.8525 72.585 36.8525 71.7383V68.2591C36.8525 67.3926 36.6342 66.8105 36.1844 66.5063C35.7412 66.1954 35.0335 66.1557 34.0479 66.3409C33.0492 66.5261 32.3679 66.8436 31.9313 67.3265C31.5014 67.8027 31.3029 68.4509 31.3029 69.324V72.8033C31.3029 73.6565 31.5014 74.2254 31.9445 74.5429C32.3811 74.8604 33.069 74.9199 34.0413 74.7281H34.0479ZM28.9151 73.1075C28.9151 73.9145 28.6572 74.4172 27.5856 74.6222C26.5207 74.8273 26.3156 74.4172 26.3156 73.6367V70.4485C26.3156 69.668 26.5207 69.1851 27.5856 68.9801C28.7233 68.7618 28.9151 69.1719 28.9151 69.9723C29.4046 69.8796 29.8941 69.787 30.3968 69.6878C30.3968 68.7816 30.1785 68.1863 29.7287 67.8622C29.2855 67.5447 28.5778 67.4918 27.5922 67.677C26.5934 67.8689 25.9055 68.1863 25.4756 68.6626C25.0456 69.1454 24.8472 69.787 24.8472 70.6602V73.9939C24.8472 74.8471 25.039 75.4226 25.4822 75.7401C25.9188 76.0509 26.6133 76.1105 27.5922 75.9253C28.5712 75.7335 29.2723 75.4093 29.7221 74.9133C30.1785 74.4106 30.3968 73.7293 30.3968 72.8231C29.9007 72.9223 29.4046 73.0149 28.9151 73.1141V73.1075ZM18.1071 74.8339C18.2129 74.2981 18.332 73.7756 18.4378 73.2464C18.5502 72.7173 18.6693 72.1881 18.7884 71.6589C18.8942 72.1484 19.0066 72.6313 19.1191 73.1141C19.2315 73.597 19.3506 74.0798 19.4696 74.5693C19.0132 74.6553 18.5568 74.7413 18.1137 74.8273L18.1071 74.8339ZM19.5358 69.2447C19.0463 69.3373 18.5635 69.4299 18.074 69.5291C17.697 70.9644 17.3199 72.4064 16.9363 73.8483C16.5593 75.2837 16.1823 76.7256 15.8052 78.1676C16.3079 78.0684 16.8106 77.9758 17.3199 77.8765C17.4588 77.3672 17.5978 76.8579 17.7433 76.342C18.4378 76.2097 19.1389 76.0774 19.8467 75.9385C19.9856 76.3949 20.1245 76.8579 20.2634 77.3143C20.7661 77.2151 21.2688 77.1225 21.7781 77.0233C21.4011 75.7268 21.024 74.437 20.6536 73.134C20.2832 71.8375 19.9128 70.5477 19.5424 69.2513L19.5358 69.2447ZM15.448 76.8778C14.3897 77.0894 13.3314 77.2879 12.2797 77.4863V70.6205C11.7836 70.7131 11.2875 70.8123 10.8047 70.9049V79.1134C12.3525 78.8158 13.8936 78.5182 15.448 78.2205V76.8711V76.8778ZM82.4791 50.1619L86.5602 49.3814L79.5224 2.70306L75.739 3.43727L69.0385 52.768L73.1461 51.9677L74.0192 45.4524L81.6523 43.9906L82.4923 50.1751L82.4791 50.1619Z" fill="#DFDFDF"/>
</g>
<defs>
<clipPath id="clip0_267_2640">
<rect width="77.2703" height="76.4302" fill="white" transform="translate(10.8105 2.7027)"/>
</clipPath>
</defs>
</svg>
